<?xml version="1.0" encoding="UTF-8" standalone="no"?>
<!-- Created with Inkscape (http://www.inkscape.org/) -->

<svg
   width="135.47575mm"
   height="135.50043mm"
   viewBox="0 0 135.47575 135.50043"
   version="1.1"
   id="svg1"
   xml:space="preserve"
   inkscape:version="1.3 (0e150ed6c4, 2023-07-21)"
   sodipodi:docname="cannabis.svg"
   xmlns:inkscape="http://www.inkscape.org/namespaces/inkscape"
   xmlns:sodipodi="http://sodipodi.sourceforge.net/DTD/sodipodi-0.dtd"
   xmlns="http://www.w3.org/2000/svg"
   xmlns:svg="http://www.w3.org/2000/svg"><sodipodi:namedview
     id="namedview1"
     pagecolor="#505050"
     bordercolor="#ffffff"
     borderopacity="1"
     inkscape:showpageshadow="0"
     inkscape:pageopacity="0"
     inkscape:pagecheckerboard="1"
     inkscape:deskcolor="#505050"
     inkscape:document-units="mm"
     inkscape:zoom="0.99864618"
     inkscape:cx="283.88433"
     inkscape:cy="237.82197"
     inkscape:window-width="2256"
     inkscape:window-height="1398"
     inkscape:window-x="-11"
     inkscape:window-y="-11"
     inkscape:window-maximized="1"
     inkscape:current-layer="layer1" /><defs
     id="defs1" /><g
     inkscape:label="Layer 1"
     inkscape:groupmode="layer"
     id="layer1"
     transform="translate(-29.979941,-85.462455)"><path
       d="m 163.40932,88.406638 c 2.88396,3.360208 2.69875,8.387292 -0.42333,11.509375 L 135.09891,127.8031 H 96.760776 L 151.95287,87.110179 c 3.57187,-2.619375 8.54604,-2.06375 11.43,1.296459 z M 51.146608,148.96976 v 4.23334 c 0,16.64229 8.281458,28.97187 24.315208,34.66041 3.862917,1.37583 6.82625,4.52437 7.963958,8.49312 1.137709,3.96875 0.264584,8.20209 -2.275416,11.40355 -0.132292,0.15875 -0.264584,0.3175 -0.370417,0.47625 h 33.866669 c -0.13229,-0.15875 -0.23812,-0.3175 -0.37041,-0.47625 -2.56646,-3.20146 -3.41313,-7.46125 -2.27542,-11.40355 1.13771,-3.94229 4.10104,-7.11729 7.96396,-8.49312 16.06021,-5.715 24.31521,-18.01812 24.31521,-34.66041 v -4.23334 z m 114.300012,-6.35 c 0,3.51896 -2.83105,6.35 -6.35,6.35 h -2.11667 v 4.23334 c 0,17.4625 -7.35542,31.96166 -21.16667,40.95749 -3.46604,2.24896 -7.32896,4.15396 -11.61521,5.68854 2.64583,3.33375 4.68313,7.17021 5.95313,11.35063 0.13229,0.44979 0.26458,0.92604 0.37042,1.37583 1.16416,4.52438 -2.75167,8.38729 -7.4348,8.38729 H 72.286816 c -4.683125,0 -8.5725,-3.86291 -7.434792,-8.38729 0.105834,-0.47625 0.238125,-0.92604 0.370417,-1.37583 1.243542,-4.18042 3.307292,-8.01688 5.953125,-11.35063 -4.259792,-1.50812 -8.149167,-3.41312 -11.615208,-5.68854 -13.758334,-8.99583 -21.11375,-23.49499 -21.11375,-40.95749 v -4.23334 h -2.116667 c -3.518958,0 -6.35,-2.83104 -6.35,-6.35 0,-3.51895 2.831042,-6.35 6.35,-6.35 h 2.116667 118.533342 2.11667 c 3.51895,0 6.35,2.83105 6.35,6.35 z"
       id="path1-2"
       style="stroke-width:0.264583" /><path
       d="m 97.721461,155.18752 c 0.386377,0 0.750886,0.19684 0.96959,0.51761 1.151842,1.71318 2.675489,4.64382 3.586749,7.94626 0.5249,1.9246 0.86024,4.02416 0.75818,6.12372 0.83837,-0.64153 1.72776,-1.21745 2.60987,-1.72048 2.98896,-1.6986 6.15289,-2.69006 8.17955,-3.09831 0.37909,-0.0729 0.78004,0.0437 1.04978,0.32077 0.26974,0.27703 0.39367,0.67069 0.32077,1.05707 -0.40825,2.01937 -1.407,5.16872 -3.1129,8.1431 -0.6634,1.15913 -1.45074,2.31097 -2.362,3.37533 2.02666,0.48115 3.82003,1.2612 4.89898,1.85899 0.37179,0.20413 0.59779,0.59779 0.59779,1.02062 0,0.42283 -0.23329,0.8165 -0.59779,1.02062 -1.10811,0.61238 -2.98168,1.42158 -5.08853,1.90273 -1.47261,0.33535 -3.12747,0.52489 -4.75317,0.33535 l 0.60508,2.41304 c 0.10935,0.4447 -0.0437,0.90398 -0.40096,1.19558 -0.35722,0.29161 -0.84566,0.33535 -1.25391,0.13852 l -4.257447,-2.13602 v 5.16143 c 0,0.96959 -0.780042,1.74963 -1.749632,1.74963 -0.96959,0 -1.749635,-0.78004 -1.749635,-1.74963 v -5.16143 l -4.264737,2.12144 c -0.408248,0.20412 -0.896688,0.15309 -1.253905,-0.13852 -0.357217,-0.2916 -0.510311,-0.75088 -0.400958,-1.19558 l 0.605082,-2.41304 c -1.618413,0.18955 -3.280567,0 -4.753177,-0.33535 -2.106852,-0.48115 -3.98042,-1.28306 -5.088523,-1.90272 -0.371798,-0.20413 -0.597792,-0.5978 -0.597792,-1.02063 0,-0.42282 0.233285,-0.81649 0.597792,-1.02062 1.078942,-0.59779 2.872318,-1.37054 4.898979,-1.85898 -0.903978,-1.04979 -1.691314,-2.20163 -2.354717,-3.36076 -1.705895,-2.97438 -2.704645,-6.12373 -3.112894,-8.1431 -0.08019,-0.37909 0.04374,-0.78004 0.320767,-1.05707 0.277026,-0.27703 0.670694,-0.39367 1.049781,-0.32077 2.033952,0.40096 5.190586,1.39971 8.179546,3.09831 0.882108,0.50303 1.771506,1.07166 2.609873,1.72048 -0.102062,-2.09227 0.225995,-4.19912 0.758176,-6.12372 0.911268,-3.30244 2.434909,-6.23308 3.586752,-7.94626 0.218704,-0.32077 0.583213,-0.51761 0.96959,-0.51761 z"
       id="path1"
       style="stroke-width:0.0729014" /><path
       d="m 52.992054,91.508142 c -0.890526,0 -1.606964,0.716438 -1.606964,1.606964 v 11.784404 6.42785 c 0,0.89053 0.716438,1.60697 1.606964,1.60697 0.890525,0 1.606963,-0.71644 1.606963,-1.60697 v -4.82089 h 5.229327 l 8.570473,8.57048 -7.974557,7.96785 c -0.629394,0.6294 -0.629394,1.64714 0,2.26984 0.629394,0.6227 1.647138,0.6294 2.269836,0 l 7.96786,-7.96786 7.974558,7.97456 c 0.629393,0.62939 1.647138,0.62939 2.269835,0 0.6227,-0.6294 0.629396,-1.64714 0,-2.26984 l -7.967859,-7.96786 7.974555,-7.97456 c 0.629393,-0.62939 0.629393,-1.64714 0,-2.26983 -0.629393,-0.6227 -1.647138,-0.6294 -2.269835,0 l -7.967862,7.96786 -6.380984,-6.38099 c 3.602276,-0.54235 6.374288,-3.65584 6.374288,-7.418814 0,-4.144628 -3.354535,-7.499164 -7.499162,-7.499164 z M 63.16949,103.29254 h -8.570473 v -8.570471 h 8.570473 c 2.363575,0 4.285235,1.921661 4.285235,4.285237 0,2.363574 -1.92166,4.285234 -4.285235,4.285234 z"
       id="path1-1"
       style="stroke-width:0.0669567" /></g></svg>
